%
M48
M72
T01C0.0240
T02C0.0276
T03C0.0315
T04C0.0320
T05C0.0354
T06C0.0400
T07C0.0440
T08C0.1300
%
T01
X16851Y9522
X16151Y12422
X17751Y13722
X24251Y15522
T02
X21903Y8883
X19935Y8883
X5474Y7702
X4474Y7702
X2226Y7702
X1226Y7702
T03
X18360Y8769
X18360Y9769
X18360Y10769
T04
X18419Y6863
X17419Y6863
X16419Y6863
X15419Y6863
X14419Y6863
X14419Y3863
X15419Y3863
X16419Y3863
X17419Y3863
X18419Y3863
X19419Y3863
X20419Y3863
X21419Y3863
X22419Y3863
X23419Y3863
X24419Y3863
X25419Y3863
X26419Y3863
X27419Y3863
X27419Y6863
X26419Y6863
X25419Y6863
X24419Y6863
X23419Y6863
X22419Y6863
X21419Y6863
X20419Y6863
X19419Y6863
T05
X1309Y1403
X2785Y2682
X4309Y1403
X6230Y1403
X5785Y2682
X9230Y1403
X13832Y9572
X13832Y12131
X13856Y14887
X10856Y14887
X28498Y11466
X28498Y8466
T06
X26840Y12214
X24840Y12214
X25840Y14214
X25828Y16659
X24828Y16659
X23828Y16659
X22828Y16659
X21828Y16659
X20828Y16659
X19828Y16659
X18828Y16659
X17828Y16659
X16828Y16659
X15828Y16659
X14828Y16659
X13828Y16659
X12828Y16659
X8899Y10277
X7899Y10277
X6899Y10277
X4006Y10277
X3006Y10277
X2006Y10277
X13439Y1501
X14439Y1501
X15439Y1501
X16439Y1501
X17439Y1501
X18439Y1501
X19439Y1501
X21522Y1501
X22662Y1501
X24856Y1501
X25856Y1501
X26856Y1501
X27856Y1501
X28856Y1501
X27828Y16659
X26828Y16659
T07
X7730Y4749
X6450Y4749
X2710Y4749
X1431Y4749
T08
X3006Y16177
X7899Y16177
M30
