G75*
G70*
%OFA0B0*%
%FSLAX24Y24*%
%IPPOS*%
%LPD*%
%AMOC8*
5,1,8,0,0,1.08239X$1,22.5*
%
%ADD10C,0.0680*%
%ADD11C,0.1380*%
%ADD12C,0.0600*%
%ADD13C,0.0820*%
%ADD14C,0.0780*%
%ADD15C,0.0730*%
%ADD16R,0.0730X0.0730*%
%ADD17OC8,0.1080*%
%ADD18C,0.0480*%
D10*
X002006Y009977D02*
X002006Y010577D01*
X003006Y010577D02*
X003006Y009977D01*
X004006Y009977D02*
X004006Y010577D01*
X006899Y010577D02*
X006899Y009977D01*
X007899Y009977D02*
X007899Y010577D01*
X008899Y010577D02*
X008899Y009977D01*
X012828Y016359D02*
X012828Y016959D01*
X013828Y016959D02*
X013828Y016359D01*
X014828Y016359D02*
X014828Y016959D01*
X015828Y016959D02*
X015828Y016359D01*
X016828Y016359D02*
X016828Y016959D01*
X017828Y016959D02*
X017828Y016359D01*
X018828Y016359D02*
X018828Y016959D01*
X019828Y016959D02*
X019828Y016359D01*
X020828Y016359D02*
X020828Y016959D01*
X021828Y016959D02*
X021828Y016359D01*
X022828Y016359D02*
X022828Y016959D01*
X023828Y016959D02*
X023828Y016359D01*
X024828Y016359D02*
X024828Y016959D01*
X025828Y016959D02*
X025828Y016359D01*
X026828Y016359D02*
X026828Y016959D01*
X027828Y016959D02*
X027828Y016359D01*
X026140Y014214D02*
X025540Y014214D01*
X024840Y012514D02*
X024840Y011914D01*
X026840Y011914D02*
X026840Y012514D01*
D11*
X007899Y016177D03*
X003006Y016177D03*
D12*
X014419Y007123D02*
X014419Y006603D01*
X015419Y006603D02*
X015419Y007123D01*
X016419Y007123D02*
X016419Y006603D01*
X017419Y006603D02*
X017419Y007123D01*
X018419Y007123D02*
X018419Y006603D01*
X019419Y006603D02*
X019419Y007123D01*
X020419Y007123D02*
X020419Y006603D01*
X021419Y006603D02*
X021419Y007123D01*
X022419Y007123D02*
X022419Y006603D01*
X023419Y006603D02*
X023419Y007123D01*
X024419Y007123D02*
X024419Y006603D01*
X025419Y006603D02*
X025419Y007123D01*
X026419Y007123D02*
X026419Y006603D01*
X027419Y006603D02*
X027419Y007123D01*
X027419Y004123D02*
X027419Y003603D01*
X026419Y003603D02*
X026419Y004123D01*
X025419Y004123D02*
X025419Y003603D01*
X024419Y003603D02*
X024419Y004123D01*
X023419Y004123D02*
X023419Y003603D01*
X022419Y003603D02*
X022419Y004123D01*
X021419Y004123D02*
X021419Y003603D01*
X020419Y003603D02*
X020419Y004123D01*
X019419Y004123D02*
X019419Y003603D01*
X018419Y003603D02*
X018419Y004123D01*
X017419Y004123D02*
X017419Y003603D01*
X016419Y003603D02*
X016419Y004123D01*
X015419Y004123D02*
X015419Y003603D01*
X014419Y003603D02*
X014419Y004123D01*
D13*
X001309Y001403D03*
X002785Y002682D03*
X004309Y001403D03*
X006230Y001403D03*
X005785Y002682D03*
X009230Y001403D03*
X013439Y001501D03*
X014439Y001501D03*
X015439Y001501D03*
X016439Y001501D03*
X017439Y001501D03*
X018439Y001501D03*
X019439Y001501D03*
X021522Y001501D03*
X022662Y001501D03*
X024856Y001501D03*
X025856Y001501D03*
X026856Y001501D03*
X027856Y001501D03*
X028856Y001501D03*
X028498Y008466D03*
X028498Y011466D03*
X018360Y010769D03*
X018360Y009769D03*
X018360Y008769D03*
X013856Y014887D03*
X010856Y014887D03*
D14*
X013832Y012131D03*
X013832Y009572D03*
D15*
X019935Y008883D03*
X021903Y008883D03*
X004474Y007702D03*
X002226Y007702D03*
D16*
X001226Y007702D03*
X005474Y007702D03*
D17*
X006450Y004749D03*
X007730Y004749D03*
X002710Y004749D03*
X001431Y004749D03*
D18*
X016151Y012422D03*
X017751Y013722D03*
X024251Y015522D03*
X016851Y009522D03*
M02*
